<?xml version="1.0" standalone="no"?>
<!DOCTYPE svg PUBLIC "-//W3C//DTD SVG 20010904//EN"
 "http://www.w3.org/TR/2001/REC-SVG-20010904/DTD/svg10.dtd">
<svg version="1.0" xmlns="http://www.w3.org/2000/svg"
 width="500.000000pt" height="500.000000pt" viewBox="0 0 500.000000 500.000000"
 preserveAspectRatio="xMidYMid meet">
<metadata>
Created by potrace 1.16, written by Peter Selinger 2001-2019
</metadata>
<g transform="translate(0.000000,500.000000) scale(0.100000,-0.100000)"
fill="#000000" stroke="none">
<path d="M2550 4084 c-175 -33 -335 -117 -444 -235 -72 -77 -90 -111 -81 -155
6 -35 29 -54 63 -54 11 0 58 30 104 66 109 86 185 128 283 155 109 30 284 24
392 -14 257 -89 426 -311 463 -608 9 -75 8 -101 -10 -190 -31 -159 -25 -196
37 -228 34 -17 61 -14 179 25 98 33 117 36 187 31 205 -14 354 -175 382 -414
24 -216 -131 -422 -349 -462 -124 -23 -250 -5 -373 53 -210 100 -344 236 -710
721 -356 472 -586 665 -908 760 -73 22 -117 28 -237 32 -94 4 -170 1 -210 -6
-358 -68 -626 -312 -734 -666 -25 -82 -27 -105 -28 -255 -1 -128 3 -183 18
-245 85 -368 333 -613 705 -696 170 -37 406 -23 588 37 301 98 663 371 663
500 0 36 -29 64 -65 64 -12 0 -69 -38 -128 -83 -229 -178 -426 -262 -675 -287
-177 -19 -304 4 -447 78 -308 160 -430 606 -257 937 46 88 163 208 247 252
114 59 195 78 340 77 150 0 214 -14 343 -75 223 -103 373 -255 749 -754 253
-336 382 -475 556 -599 76 -54 207 -117 292 -141 95 -26 286 -31 380 -10 196
43 390 194 473 365 60 123 76 201 75 350 -1 93 -6 145 -22 204 -60 226 -222
388 -466 466 -84 27 -245 30 -338 7 l-58 -15 7 67 c3 37 1 116 -5 175 -32 290
-163 505 -394 646 -187 113 -400 158 -587 124z"/>
<path d="M2235 1483 c-11 -2 -30 -6 -42 -9 l-23 -4 0 -444 0 -445 58 -12 c31
-8 107 -13 167 -13 96 0 116 3 159 24 110 53 157 134 164 276 7 158 -40 260
-147 316 -44 23 -66 28 -127 28 -44 0 -90 -6 -111 -15 -19 -8 -37 -15 -39 -15
-2 0 -4 72 -4 160 0 174 3 166 -55 153z m280 -412 c94 -54 112 -256 32 -348
-41 -46 -82 -63 -154 -63 -111 0 -103 -15 -103 200 0 209 -2 202 72 226 50 16
110 10 153 -15z"/>
<path d="M1664 1176 c-106 -49 -159 -149 -159 -301 0 -153 45 -239 153 -292
51 -25 67 -28 157 -28 55 0 120 6 144 13 l44 13 -6 51 c-4 28 -8 52 -10 54 -1
2 -21 -3 -42 -11 -64 -23 -173 -19 -225 8 -47 23 -90 87 -90 134 l0 23 211 0
212 0 -8 82 c-17 195 -94 278 -257 278 -56 0 -85 -6 -124 -24z m187 -93 c31
-19 69 -85 69 -121 0 -22 -3 -22 -146 -22 l-146 0 7 28 c26 106 133 164 216
115z"/>
<path d="M2974 1176 c-106 -49 -159 -149 -159 -301 0 -153 45 -239 153 -292
51 -25 67 -28 157 -28 55 0 120 6 144 13 l44 13 -6 51 c-4 28 -8 52 -10 54 -1
2 -21 -3 -42 -11 -64 -23 -173 -19 -225 8 -47 23 -90 87 -90 134 l0 23 211 0
212 0 -8 82 c-17 195 -94 278 -257 278 -56 0 -85 -6 -124 -24z m187 -93 c31
-19 69 -85 69 -121 0 -22 -3 -22 -146 -22 l-146 0 7 28 c26 106 133 164 216
115z"/>
<path d="M3550 1182 l-65 -17 -3 -297 -2 -298 60 0 60 0 0 255 0 255 28 7 c24
7 107 7 172 1 22 -3 25 2 33 45 5 26 7 51 3 54 -3 4 -55 8 -114 10 -78 2 -124
-2 -172 -15z"/>
<path d="M3968 1188 l-37 -10 6 -46 c3 -26 7 -48 8 -50 2 -2 30 2 64 9 77 15
155 8 182 -17 26 -23 49 -74 49 -109 l0 -26 -73 7 c-131 12 -244 -32 -281
-109 -18 -40 -21 -122 -5 -164 14 -38 57 -81 99 -101 39 -18 247 -21 330 -5
l45 9 0 234 c0 219 -2 238 -22 282 -14 31 -36 56 -64 75 -40 26 -50 28 -153
30 -61 1 -128 -3 -148 -9z m250 -344 c21 -6 22 -12 22 -94 l0 -87 -57 -6
c-116 -12 -193 25 -193 92 0 37 34 79 73 90 37 11 122 13 155 5z"/>
<path d="M570 1181 c0 -40 116 -402 172 -539 l30 -73 57 3 56 3 59 180 c75
232 68 214 74 190 7 -33 62 -205 94 -293 l30 -83 56 3 56 3 44 110 c44 111
134 399 147 468 l7 37 -59 0 -60 0 -33 -127 c-18 -71 -49 -177 -68 -238 l-35
-110 -32 100 c-18 55 -48 162 -66 237 l-34 138 -51 0 -50 0 -17 -72 c-37 -159
-110 -389 -120 -379 -12 12 -76 221 -107 354 l-24 97 -63 0 c-35 0 -63 -4 -63
-9z"/>
</g>
</svg>
